<svg width="170" height="54" viewBox="0 0 170 54" fill="none" xmlns="http://www.w3.org/2000/svg">
<path d="M35.1334 26.0991C35.0947 21.7995 38.6549 19.7077 38.8177 19.6103C36.8015 16.6714 33.6763 16.2698 32.578 16.2378C29.9533 15.9616 27.4072 17.808 26.0701 17.808C24.7064 17.808 22.6474 16.2645 20.4283 16.3098C17.5726 16.3539 14.9011 18.0068 13.436 20.5735C10.4122 25.807 12.6673 33.4978 15.5643 37.7281C17.0135 39.8012 18.7069 42.1131 20.9233 42.0318C23.0917 41.9437 23.9017 40.651 26.5185 40.651C29.1113 40.651 29.8719 42.0318 32.1324 41.9797C34.4596 41.9437 35.9247 39.8986 37.3232 37.8081C38.9979 35.4349 39.6704 33.0949 39.6971 32.9749C39.6437 32.9562 35.1788 31.2513 35.1334 26.0991ZM30.8633 13.455C32.0296 11.9968 32.8276 10.0131 32.6061 8C30.918 8.07471 28.807 9.1673 27.5914 10.5934C26.5158 11.8501 25.5551 13.9099 25.8033 15.8469C27.6995 15.9883 29.6464 14.8904 30.8633 13.455Z" fill="black"/>
<path d="M66.5414 41.7343H63.511L61.851 36.5195H56.081L54.4997 41.7343H51.5493L57.2673 23.9807H60.7981L66.5414 41.7343ZM61.3506 34.3316L59.8494 29.6958C59.6906 29.2222 59.3917 28.1069 58.954 26.3513H58.9006C58.7245 27.1064 58.4429 28.2217 58.0573 29.6958L56.5814 34.3316H61.3506ZM81.2173 35.1761C81.2173 37.3533 80.6261 39.0742 79.4425 40.3376C78.383 41.4622 77.0659 42.0238 75.4953 42.0238C73.7993 42.0238 72.5796 41.4195 71.839 40.2082V46.9251H68.9941V33.1403C68.9941 31.7729 68.958 30.3708 68.8887 28.9327H71.3907L71.5495 30.9618H71.6028C72.5516 29.433 73.9914 28.6686 75.9237 28.6686C77.4342 28.6686 78.6952 29.2649 79.704 30.4589C80.7115 31.6555 81.2173 33.227 81.2173 35.1761ZM78.3189 35.2802C78.3189 34.0341 78.0387 33.0069 77.4756 32.1972C76.8604 31.3554 76.0344 30.9338 74.9989 30.9338C74.297 30.9338 73.6592 31.1686 73.0894 31.6315C72.5182 32.0984 72.1446 32.7081 71.9698 33.4632C71.8918 33.7456 71.8474 34.0362 71.8377 34.329V36.4648C71.8377 37.3946 72.1233 38.1804 72.6944 38.8234C73.2655 39.4638 74.0075 39.7853 74.9202 39.7853C75.9917 39.7853 76.8257 39.3704 77.4222 38.5473C78.02 37.7215 78.3189 36.6329 78.3189 35.2802ZM95.9451 35.1761C95.9451 37.3533 95.354 39.0742 94.1704 40.3376C93.1095 41.4622 91.7938 42.0238 90.2219 42.0238C88.5258 42.0238 87.3062 41.4195 86.5656 40.2082V46.9251H83.7206V33.1403C83.7206 31.7729 83.6846 30.3708 83.6152 28.9327H86.1172L86.276 30.9618H86.3294C87.2768 29.433 88.7166 28.6686 90.6502 28.6686C92.1594 28.6686 93.4204 29.2649 94.4319 30.4589C95.4381 31.6555 95.9451 33.227 95.9451 35.1761ZM93.0455 35.2802C93.0455 34.0341 92.7639 33.0069 92.2008 32.1972C91.5856 31.3554 90.7623 30.9338 89.7268 30.9338C89.0249 30.9338 88.387 31.1686 87.8146 31.6315C87.2435 32.0984 86.8712 32.7081 86.6963 33.4632C86.6096 33.8154 86.5629 34.1022 86.5629 34.329V36.4648C86.5629 37.3946 86.8498 38.1804 87.4183 38.8234C87.9894 39.4624 88.7313 39.7853 89.6467 39.7853C90.7196 39.7853 91.5536 39.3704 92.1487 38.5473C92.7466 37.7215 93.0455 36.6329 93.0455 35.2802ZM112.412 36.7543C112.412 38.2658 111.883 39.4944 110.833 40.4429C109.678 41.4782 108.064 41.9971 105.996 41.9971C104.085 41.9971 102.553 41.6289 101.398 40.8912L102.055 38.5206C103.303 39.2596 104.674 39.6278 106.165 39.6278C107.238 39.6278 108.072 39.385 108.667 38.9035C109.264 38.4205 109.565 37.7748 109.565 36.9691C109.565 36.2473 109.316 35.643 108.826 35.1508C108.334 34.6598 107.52 34.2022 106.376 33.782C103.267 32.6227 101.711 30.9271 101.711 28.6966C101.711 27.2398 102.261 26.0472 103.358 25.1147C104.455 24.1835 105.909 23.7179 107.719 23.7179C109.335 23.7179 110.681 23.9994 111.75 24.561L111.036 26.8796C110.03 26.3353 108.894 26.0632 107.624 26.0632C106.62 26.0632 105.833 26.31 105.27 26.8009C104.796 27.2398 104.556 27.7748 104.556 28.4098C104.556 29.1101 104.83 29.6918 105.374 30.148C105.846 30.5683 106.708 31.0259 107.955 31.5168C109.484 32.1331 110.608 32.8508 111.327 33.6753C112.051 34.4997 112.412 35.5283 112.412 36.7543ZM121.842 31.0672H118.706V37.2826C118.706 38.8634 119.259 39.6519 120.366 39.6519C120.875 39.6519 121.296 39.6092 121.63 39.5198L121.709 41.6796C121.148 41.8891 120.41 41.9945 119.496 41.9945C118.373 41.9945 117.495 41.6516 116.861 40.9659C116.229 40.2802 115.912 39.1316 115.912 37.5147V31.0619H114.044V28.9274H115.912V26.5834L118.706 25.7403V28.9274H121.842V31.0672ZM135.963 35.2281C135.963 37.1959 135.4 38.8114 134.276 40.0748C133.1 41.3755 131.537 42.0238 129.587 42.0238C127.705 42.0238 126.21 41.4008 125.094 40.1561C123.978 38.9088 123.421 37.3373 123.421 35.4416C123.421 33.4578 123.997 31.833 125.146 30.5696C126.298 29.3049 127.848 28.6726 129.798 28.6726C131.677 28.6726 133.186 29.2969 134.328 30.5429C135.42 31.7516 135.963 33.3124 135.963 35.2281ZM133.014 35.2935C133.014 34.1209 132.76 33.115 132.252 32.2732C131.655 31.2566 130.801 30.7484 129.695 30.7484C128.555 30.7484 127.681 31.2566 127.086 32.2732C126.577 33.115 126.323 34.1382 126.323 35.3469C126.323 36.5208 126.577 37.5294 127.086 38.3685C127.701 39.385 128.559 39.8933 129.671 39.8933C130.759 39.8933 131.611 39.3744 132.228 38.3431C132.751 37.4813 133.014 36.4688 133.014 35.2935ZM145.214 31.4341C144.918 31.3807 144.618 31.3543 144.317 31.3554C143.317 31.3554 142.543 31.7316 141.998 32.4893C141.526 33.1563 141.288 33.9995 141.288 35.0173V41.7343H138.443V32.9642C138.446 31.6204 138.418 30.2767 138.361 28.9341H140.839L140.943 31.3834H141.021C141.323 30.5416 141.795 29.8626 142.444 29.3543C143.038 28.9101 143.759 28.6696 144.5 28.6686C144.763 28.6686 145.001 28.6873 145.212 28.7206L145.214 31.4341ZM157.938 34.7279C157.945 35.1602 157.91 35.5923 157.834 36.0179H149.299C149.331 37.2826 149.745 38.2511 150.537 38.9181C151.256 39.5131 152.186 39.8119 153.329 39.8119C154.592 39.8119 155.745 39.6118 156.782 39.2076L157.228 41.1807C156.016 41.709 154.586 41.9718 152.935 41.9718C150.949 41.9718 149.391 41.3875 148.257 40.2215C147.125 39.0542 146.558 37.4854 146.558 35.5203C146.558 33.5912 147.085 31.9837 148.141 30.7017C149.245 29.3329 150.739 28.6486 152.617 28.6486C154.463 28.6486 155.86 29.3329 156.809 30.7017C157.56 31.7863 157.938 33.131 157.938 34.7279ZM155.225 33.9901C155.245 33.1457 155.058 32.4186 154.672 31.8036C154.18 31.0112 153.422 30.6163 152.407 30.6163C151.477 30.6163 150.719 31.0018 150.142 31.7756C149.668 32.3906 149.387 33.1297 149.3 33.9875L155.225 33.9901Z" fill="black"/>
<path d="M55.2603 17.7039C54.469 17.7039 53.7845 17.6652 53.2147 17.5999V9.01655C54.0116 8.89348 54.8169 8.83282 55.6233 8.83512C58.8859 8.83512 60.3885 10.44 60.3885 13.0561C60.3885 16.0737 58.6137 17.7039 55.2603 17.7039ZM55.7381 9.93571C55.2977 9.93571 54.9227 9.9624 54.6118 10.0264V16.5513C54.7799 16.578 55.1029 16.59 55.5566 16.59C57.6943 16.59 58.9113 15.3733 58.9113 13.0948C58.9113 11.063 57.8104 9.93571 55.7381 9.93571ZM65.0709 17.7693C63.2321 17.7693 62.0405 16.3965 62.0405 14.5329C62.0405 12.5905 63.2574 11.2057 65.175 11.2057C66.9871 11.2057 68.2054 12.5131 68.2054 14.4301C68.2054 16.3965 66.9498 17.7693 65.0709 17.7693ZM65.1243 12.2276C64.1141 12.2276 63.467 13.1721 63.467 14.4928C63.467 15.7882 64.1275 16.7327 65.1109 16.7327C66.0944 16.7327 66.7549 15.7228 66.7549 14.4662C66.7549 13.1855 66.1077 12.2276 65.1243 12.2276ZM78.6912 11.3351L76.723 17.6265H75.4406L74.6253 14.8944C74.4226 14.2261 74.2538 13.548 74.1195 12.8626H74.0929C73.9901 13.5483 73.7953 14.2354 73.5884 14.8944L72.7211 17.6265H71.4254L69.5732 11.3351H71.0104L71.7229 14.3261C71.8911 15.0385 72.0325 15.7108 72.15 16.3459H72.1766C72.2794 15.8162 72.4475 15.1545 72.6944 14.3394L73.5884 11.3365H74.728L75.5834 14.2754C75.7902 14.9878 75.9584 15.6868 76.0891 16.3472H76.1265C76.2172 15.7002 76.36 15.0131 76.5535 14.2754L77.3181 11.3365L78.6912 11.3351ZM85.9371 17.6265H84.5386V14.0139C84.5386 12.9013 84.1116 12.3437 83.2696 12.3437C82.4409 12.3437 81.8711 13.0561 81.8711 13.8845V17.6265H80.4727V13.1334C80.4727 12.5771 80.4593 11.9808 80.4206 11.3338H81.6509L81.7163 12.305H81.755C82.1313 11.6326 82.8946 11.2057 83.75 11.2057C85.071 11.2057 85.9384 12.2156 85.9384 13.8592L85.9371 17.6265ZM89.7935 17.6265H88.3937V8.44824H89.7935V17.6265ZM94.8923 17.7693C93.0548 17.7693 91.8618 16.3965 91.8618 14.5329C91.8618 12.5905 93.0788 11.2057 94.995 11.2057C96.8085 11.2057 98.0255 12.5131 98.0255 14.4301C98.0268 16.3965 96.7698 17.7693 94.8923 17.7693ZM94.9443 12.2276C93.9342 12.2276 93.287 13.1721 93.287 14.4928C93.287 15.7882 93.9489 16.7327 94.9297 16.7327C95.9144 16.7327 96.5736 15.7228 96.5736 14.4662C96.575 13.1855 95.9291 12.2276 94.9443 12.2276ZM103.539 17.6265L103.438 16.9022H103.4C102.973 17.4851 102.35 17.7693 101.56 17.7693C100.433 17.7693 99.6321 16.9795 99.6321 15.9176C99.6321 14.3648 100.979 13.5617 103.31 13.5617V13.4456C103.31 12.6172 102.871 12.2023 102.003 12.2023C101.383 12.2023 100.838 12.3584 100.359 12.6692L100.075 11.75C100.657 11.3872 101.383 11.2057 102.236 11.2057C103.88 11.2057 104.71 12.0729 104.71 13.8085V16.1257C104.71 16.7607 104.738 17.253 104.8 17.6279L103.539 17.6265ZM103.347 14.4928C101.794 14.4928 101.015 14.8691 101.015 15.7615C101.015 16.4219 101.416 16.7447 101.974 16.7447C102.685 16.7447 103.347 16.2018 103.347 15.464V14.4928ZM111.5 17.6265L111.435 16.6167H111.396C110.995 17.3797 110.319 17.7693 109.376 17.7693C107.859 17.7693 106.735 16.4352 106.735 14.5582C106.735 12.5905 107.9 11.2044 109.491 11.2044C110.333 11.2044 110.929 11.4886 111.265 12.0595H111.294V8.44824H112.693V15.931C112.693 16.5393 112.708 17.1089 112.745 17.6265H111.5ZM111.294 13.9245C111.294 13.0441 110.71 12.293 109.82 12.293C108.783 12.293 108.15 13.2122 108.15 14.5062C108.15 15.7749 108.808 16.6433 109.792 16.6433C110.672 16.6433 111.294 15.8789 111.294 14.9731V13.9245ZM121.568 17.7693C119.731 17.7693 118.539 16.3965 118.539 14.5329C118.539 12.5905 119.756 11.2057 121.673 11.2057C123.486 11.2057 124.703 12.5131 124.703 14.4301C124.704 16.3965 123.449 17.7693 121.568 17.7693ZM121.621 12.2276C120.612 12.2276 119.964 13.1721 119.964 14.4928C119.964 15.7882 120.625 16.7327 121.607 16.7327C122.592 16.7327 123.251 15.7228 123.251 14.4662C123.254 13.1855 122.607 12.2276 121.621 12.2276ZM132.224 17.6265H130.824V14.0139C130.824 12.9013 130.397 12.3437 129.555 12.3437C128.726 12.3437 128.158 13.0561 128.158 13.8845V17.6265H126.758V13.1334C126.758 12.5771 126.745 11.9808 126.706 11.3338H127.936L128.002 12.305H128.04C128.415 11.6326 129.18 11.2044 130.034 11.2044C131.355 11.2044 132.224 12.2143 132.224 13.8578V17.6265ZM141.633 12.3837H140.094V15.4387C140.094 16.2165 140.364 16.6047 140.908 16.6047C141.155 16.6047 141.362 16.578 141.529 16.5393L141.567 17.6012C141.296 17.7053 140.933 17.7573 140.482 17.7573C139.38 17.7573 138.721 17.149 138.721 15.5561V12.3837H137.803V11.3351H138.721V10.1825L140.094 9.76762V11.3338H141.633V12.3837ZM149.036 17.6265H147.639V14.0406C147.639 12.9147 147.213 12.345 146.37 12.345C145.645 12.345 144.97 12.8373 144.97 13.8338V17.6265H143.573V8.44824H144.97V12.2276H144.998C145.438 11.5419 146.076 11.2044 146.89 11.2044C148.222 11.2044 149.036 12.2396 149.036 13.8845V17.6265ZM156.621 14.817H152.424C152.451 16.0083 153.239 16.6807 154.407 16.6807C155.027 16.6807 155.599 16.5766 156.103 16.3832L156.32 17.3544C155.725 17.6132 155.025 17.7426 154.209 17.7426C152.241 17.7426 151.076 16.4993 151.076 14.5716C151.076 12.6425 152.269 11.1924 154.052 11.1924C155.66 11.1924 156.669 12.3837 156.669 14.1833C156.678 14.3957 156.662 14.6084 156.621 14.817ZM155.338 13.8205C155.338 12.8493 154.849 12.1636 153.955 12.1636C153.151 12.1636 152.516 12.8626 152.425 13.8205H155.338Z" fill="black"/>
</svg>
