<svg width="170" height="54" viewBox="0 0 170 54" fill="none" xmlns="http://www.w3.org/2000/svg">
<path d="M134.588 39.2116H136.947V23.4059H134.588V39.2116ZM155.836 29.0999L153.132 35.952H153.051L150.245 29.0999H147.704L151.914 38.6768L149.513 44.0043H151.973L158.46 29.1004L155.836 29.0999ZM142.457 37.4162C141.686 37.4162 140.608 37.0295 140.608 36.074C140.608 34.8541 141.95 34.3864 143.108 34.3864C144.145 34.3864 144.634 34.6097 145.264 34.9149C145.081 36.3791 143.82 37.4162 142.457 37.4162ZM142.743 28.7542C141.035 28.7542 139.266 29.5068 138.534 31.1741L140.628 32.0482C141.075 31.1741 141.909 30.8897 142.783 30.8897C144.003 30.8897 145.244 31.621 145.264 32.9228V33.0853C144.837 32.8413 143.921 32.4754 142.804 32.4754C140.546 32.4754 138.249 33.7154 138.249 36.0335C138.249 38.1481 140.099 39.5106 142.173 39.5106C143.758 39.5106 144.634 38.799 145.182 37.965H145.264V39.1857H147.542V33.1257C147.542 30.3197 145.446 28.7542 142.743 28.7542ZM128.163 31.0239H124.808V25.6065H128.163C129.927 25.6065 130.928 27.0664 130.928 28.3152C130.928 29.54 129.927 31.0239 128.163 31.0239ZM128.103 23.4063H122.45V39.2119H124.808V33.2241H128.103C130.717 33.2241 133.287 31.3317 133.287 28.3157C133.287 25.3003 130.717 23.4063 128.103 23.4063ZM97.2793 37.4189C95.6496 37.4189 94.2856 36.0538 94.2856 34.1808C94.2856 32.2859 95.6496 30.9016 97.2793 30.9016C98.8884 30.9016 100.151 32.286 100.151 34.1808C100.151 36.0538 98.8884 37.4189 97.2793 37.4189ZM99.9881 29.9847H99.9065C99.3772 29.3534 98.3583 28.7831 97.0759 28.7831C94.3868 28.7831 91.9225 31.1461 91.9225 34.1808C91.9225 37.1947 94.3868 39.537 97.0759 39.537C98.3583 39.537 99.3772 38.9665 99.9065 38.3152H99.9881V39.0886C99.9881 41.1465 98.8884 42.2457 97.1164 42.2457C95.6708 42.2457 94.7746 41.2071 94.4076 40.3315L92.3509 41.1868C92.941 42.612 94.5089 44.3643 97.1164 44.3643C99.8869 44.3643 102.229 42.7345 102.229 38.7625V29.1088H99.9882L99.9881 29.9847ZM103.859 39.2111H106.22V23.4054H103.859V39.2111ZM109.704 33.9971C109.643 31.9195 111.313 30.8606 112.515 30.8606C113.452 30.8606 114.245 31.3293 114.511 32.0009L109.704 33.9971ZM117.036 32.2044C116.588 31.0034 115.223 28.7831 112.433 28.7831C109.663 28.7831 107.361 30.9624 107.361 34.1601C107.361 37.1745 109.643 39.5371 112.697 39.5371C115.162 39.5371 116.588 38.0304 117.179 37.1542L115.346 35.932C114.734 36.8284 113.9 37.419 112.697 37.419C111.496 37.419 110.64 36.8689 110.091 35.7894L117.28 32.8159L117.036 32.2044ZM59.7555 30.433V32.7141H65.2138C65.0509 33.9972 64.6232 34.9339 63.9713 35.5858C63.1767 36.3799 61.9343 37.256 59.7554 37.256C56.3947 37.256 53.7675 34.5472 53.7675 31.1866C53.7675 27.826 56.3947 25.1169 59.7554 25.1169C61.5682 25.1169 62.8918 25.8299 63.8695 26.7464L65.479 25.1371C64.1139 23.8337 62.3015 22.8358 59.7554 22.8358C55.1517 22.8358 51.2819 26.5834 51.2819 31.1866C51.2819 35.7893 55.1517 39.5371 59.7554 39.5371C62.2399 39.5371 64.114 38.7223 65.5802 37.1948C67.0875 35.6876 67.5561 33.5695 67.5561 31.8583C67.5561 31.3294 67.515 30.8405 67.4336 30.433H59.7555ZM73.7624 37.4189C72.1326 37.4189 70.7272 36.0746 70.7272 34.1601C70.7272 32.2252 72.1326 30.9017 73.7624 30.9017C75.3915 30.9017 76.7969 32.2252 76.7969 34.1601C76.7969 36.0746 75.3915 37.4189 73.7624 37.4189ZM73.7624 28.7831C70.7879 28.7831 68.3645 31.0438 68.3645 34.1601C68.3645 37.256 70.7879 39.5371 73.7624 39.5371C76.7358 39.5371 79.1596 37.256 79.1596 34.1601C79.1596 31.0438 76.7358 28.7831 73.7624 28.7831ZM85.5363 37.4189C83.9076 37.4189 82.5017 36.0746 82.5017 34.1601C82.5017 32.2252 83.9077 30.9017 85.5363 30.9017C87.1661 30.9017 88.571 32.2252 88.571 34.1601C88.571 36.0746 87.1661 37.4189 85.5363 37.4189ZM85.5363 28.7831C82.5629 28.7831 80.1396 31.0438 80.1396 34.1601C80.1396 37.256 82.5629 39.5371 85.5363 39.5371C88.5108 39.5371 90.9341 37.256 90.9341 34.1601C90.9341 31.0438 88.5108 28.7831 85.5363 28.7831Z" fill="black"/>
<path d="M25.5842 25.8409L12.1254 40.1265C12.1259 40.1295 12.1269 40.132 12.1274 40.135C12.5401 41.6863 13.957 42.8285 15.6386 42.8285C16.3108 42.8285 16.9419 42.6467 17.4831 42.3277L17.5261 42.3025L32.6765 33.56L25.5842 25.8409Z" fill="#EB3131"/>
<path d="M39.2014 23.4087L39.1885 23.3999L32.6476 19.608L25.2784 26.1654L32.6732 33.5593L39.1796 29.8051C40.3203 29.1893 41.0947 27.9868 41.0947 26.6C41.0947 25.2232 40.3308 24.0266 39.2014 23.4087Z" fill="#F6B60B"/>
<path d="M12.1234 13.0126C12.0425 13.3109 12 13.6235 12 13.948V39.1921C12 39.516 12.042 39.8296 12.1239 40.1269L26.0474 26.2063L12.1234 13.0126Z" fill="#5778C5"/>
<path d="M25.6837 26.5701L32.6505 19.6054L17.5171 10.8313C16.9671 10.5018 16.325 10.3116 15.6381 10.3116C13.9565 10.3116 12.5377 11.4559 12.1249 13.009C12.1244 13.0105 12.1244 13.0116 12.1244 13.0129L25.6837 26.5701Z" fill="#3BAD49"/>
<path d="M59.3129 13.6498H55.6248V14.5625H58.3885C58.3134 15.3072 58.017 15.892 57.5173 16.3167C57.0175 16.7414 56.3794 16.9547 55.6248 16.9547C54.7971 16.9547 54.0958 16.6663 53.5211 16.0935C52.958 15.5088 52.6717 14.7858 52.6717 13.9146C52.6717 13.0436 52.958 12.3205 53.5211 11.7359C54.0959 11.163 54.7971 10.8765 55.6248 10.8765C56.0496 10.8765 56.4545 10.9496 56.8258 11.1097C57.1973 11.2696 57.4955 11.4929 57.7286 11.7793L58.4299 11.0781C58.1118 10.7165 57.7089 10.44 57.209 10.2385C56.7092 10.037 56.1878 9.94025 55.6247 9.94025C54.5205 9.94025 53.5843 10.3234 52.8197 11.088C52.0552 11.8543 51.672 12.7986 51.672 13.9147C51.672 15.0307 52.0552 15.977 52.8197 16.7415C53.5842 17.5059 54.5205 17.8893 55.6247 17.8893C56.7843 17.8893 57.7088 17.5178 58.4199 16.7632C59.0461 16.1351 59.3661 15.2857 59.3661 14.2229C59.3661 14.0431 59.3445 13.8513 59.3129 13.6498ZM60.7416 10.11V17.7192H65.1842V16.7848H61.7194V14.371H64.8445V13.4583H61.7194V11.0464H65.1842V10.1099L60.7416 10.11ZM71.4137 11.0464V10.11H66.1848V11.0464H68.3104V17.7192H69.2882V11.0464H71.4137ZM76.1476 10.11H75.1698V17.7192H76.1476V10.11ZM82.6017 11.0464V10.11H77.3729V11.0464H79.4983V17.7192H80.4761V11.0464H82.6017ZM92.4687 11.0997C91.7141 10.3234 90.7896 9.94019 89.6853 9.94019C88.5792 9.94019 87.6548 10.3234 86.9001 11.0879C86.1454 11.8425 85.7742 12.7887 85.7742 13.9146C85.7742 15.0405 86.1455 15.9868 86.9001 16.7415C87.6547 17.5058 88.5792 17.8892 89.6853 17.8892C90.7797 17.8892 91.714 17.5059 92.4687 16.7415C93.2233 15.9869 93.5946 15.0406 93.5946 13.9146C93.5946 12.7986 93.2233 11.8542 92.4687 11.0997ZM87.6014 11.7358C88.1643 11.163 88.8558 10.8765 89.6853 10.8765C90.513 10.8765 91.2045 11.163 91.7575 11.7358C92.3205 12.2988 92.597 13.0335 92.597 13.9146C92.597 14.7976 92.3205 15.5304 91.7575 16.0935C91.2044 16.6663 90.513 16.9547 89.6853 16.9547C88.8557 16.9547 88.1643 16.6663 87.6014 16.0935C87.0502 15.5186 86.7737 14.7976 86.7737 13.9146C86.7737 13.0335 87.0502 12.3106 87.6014 11.7358ZM95.9177 12.9803L95.8763 11.5125H95.9177L99.7855 17.7192H100.807V10.1099H99.829V14.5624L99.8704 16.0302H99.829L96.1311 10.1099H94.9399V17.7192H95.9177V12.9803Z" fill="black" stroke="black" stroke-width="0.26666" stroke-miterlimit="10"/>
</svg>
