<svg width="170" height="54" viewBox="0 0 170 54" fill="none" xmlns="http://www.w3.org/2000/svg">
<path d="M137.284 39.8703H139.772V23.2013H137.284V39.8703ZM159.693 29.2063L156.841 36.4327H156.756L153.796 29.2063H151.116L155.556 39.3063L153.024 44.9248H155.619L162.46 29.2068L159.693 29.2063ZM145.583 37.9769C144.77 37.9769 143.633 37.569 143.633 36.5613C143.633 35.2748 145.049 34.7816 146.27 34.7816C147.363 34.7816 147.879 35.017 148.543 35.3389C148.35 36.8831 147.02 37.9769 145.583 37.9769ZM145.885 28.8417C144.083 28.8417 142.218 29.6354 141.446 31.3938L143.654 32.3156C144.126 31.3938 145.005 31.0938 145.927 31.0938C147.214 31.0938 148.522 31.8651 148.543 33.238V33.4093C148.092 33.152 147.127 32.7662 145.949 32.7662C143.567 32.7662 141.145 34.0739 141.145 36.5186C141.145 38.7488 143.097 40.1857 145.283 40.1857C146.955 40.1857 147.879 39.4351 148.456 38.5556H148.543V39.843H150.946V33.452C150.946 30.4927 148.735 28.8417 145.885 28.8417ZM130.509 31.2354H126.97V25.5221H130.509C132.369 25.5221 133.424 27.0617 133.424 28.3787C133.424 29.6704 132.368 31.2354 130.509 31.2354ZM130.445 23.2017H124.483V39.8707H126.97V33.5558H130.445C133.202 33.5558 135.913 31.56 135.913 28.3793C135.913 25.1992 133.202 23.2017 130.445 23.2017ZM97.9375 37.9797C96.2187 37.9797 94.7802 36.5401 94.7802 34.5647C94.7802 32.5663 96.2187 31.1064 97.9375 31.1064C99.6344 31.1064 100.966 32.5664 100.966 34.5647C100.966 36.5401 99.6344 37.9797 97.9375 37.9797ZM100.794 30.1394H100.708C100.15 29.4737 99.0754 28.8722 97.7229 28.8722C94.887 28.8722 92.2881 31.3643 92.2881 34.5647C92.2881 37.7433 94.887 40.2135 97.7229 40.2135C99.0754 40.2135 100.15 39.6119 100.708 38.925H100.794V39.7406C100.794 41.9109 99.6344 43.0702 97.7656 43.0702C96.2411 43.0702 95.2959 41.9749 94.9089 41.0514L92.7398 41.9534C93.3622 43.4564 95.0157 45.3044 97.7657 45.3044C100.688 45.3044 103.158 43.5856 103.158 39.3967V29.2157H100.794L100.794 30.1394ZM104.876 39.8698H107.367V23.2008H104.876V39.8698ZM111.04 34.371C110.976 32.1799 112.738 31.0632 114.005 31.0632C114.993 31.0632 115.83 31.5574 116.111 32.2658L111.04 34.371ZM118.773 32.4804C118.301 31.2138 116.862 28.8722 113.919 28.8722C110.997 28.8722 108.57 31.1705 108.57 34.5429C108.57 37.722 110.976 40.2136 114.198 40.2136C116.797 40.2136 118.301 38.6246 118.924 37.7006L116.991 36.4116C116.346 37.3569 115.466 37.9798 114.198 37.9798C112.931 37.9798 112.028 37.3997 111.449 36.2612L119.031 33.1253L118.773 32.4804ZM58.364 30.6122V33.0179H64.1205C63.9487 34.3711 63.4976 35.359 62.8101 36.0465C61.9721 36.8839 60.6618 37.8079 58.3639 37.8079C54.8196 37.8079 52.0489 34.9512 52.0489 31.407C52.0489 27.8628 54.8196 25.0057 58.3639 25.0057C60.2757 25.0057 61.6716 25.7577 62.7027 26.7243L64.4001 25.027C62.9605 23.6525 61.0491 22.6 58.3639 22.6C53.5087 22.6 49.4276 26.5524 49.4276 31.407C49.4276 36.2611 53.5087 40.2136 58.3639 40.2136C60.9841 40.2136 62.9606 39.3543 64.5069 37.7434C66.0965 36.1538 66.5907 33.92 66.5907 32.1154C66.5907 31.5575 66.5474 31.042 66.4615 30.6122H58.364ZM73.136 37.9797C71.4172 37.9797 69.935 36.562 69.935 34.5429C69.935 32.5023 71.4172 31.1065 73.136 31.1065C74.8541 31.1065 76.3363 32.5023 76.3363 34.5429C76.3363 36.562 74.8541 37.9797 73.136 37.9797ZM73.136 28.8722C69.999 28.8722 67.4433 31.2564 67.4433 34.5429C67.4433 37.8079 69.999 40.2136 73.136 40.2136C76.2718 40.2136 78.828 37.8079 78.828 34.5429C78.828 31.2564 76.2718 28.8722 73.136 28.8722ZM85.553 37.9797C83.8354 37.9797 82.3527 36.562 82.3527 34.5429C82.3527 32.5023 83.8355 31.1065 85.553 31.1065C87.2718 31.1065 88.7535 32.5023 88.7535 34.5429C88.7535 36.562 87.2718 37.9797 85.553 37.9797ZM85.553 28.8722C82.4172 28.8722 79.8615 31.2564 79.8615 34.5429C79.8615 37.8079 82.4172 40.2136 85.553 40.2136C88.69 40.2136 91.2457 37.8079 91.2457 34.5429C91.2457 31.2564 88.69 28.8722 85.553 28.8722Z" fill="black"/>
<path d="M22.3262 25.7692L8.1322 40.8352C8.13274 40.8383 8.1338 40.8409 8.1343 40.8441C8.56962 42.4801 10.0639 43.6847 11.8373 43.6847C12.5462 43.6847 13.2118 43.4931 13.7826 43.1566L13.8279 43.13L29.8059 33.91L22.3262 25.7692Z" fill="#EB3131"/>
<path d="M36.6872 23.2042L36.6736 23.1949L29.7754 19.1959L22.0037 26.1115L29.8024 33.9092L36.6642 29.95C37.8672 29.3006 38.6839 28.0323 38.6839 26.5698C38.6839 25.1178 37.8783 23.8558 36.6872 23.2042Z" fill="#F6B60B"/>
<path d="M8.13018 12.2402C8.04485 12.5549 8 12.8845 8 13.2267V39.8497C8 40.1914 8.04432 40.5221 8.13072 40.8356L22.8147 26.1546L8.13018 12.2402Z" fill="#5778C5"/>
<path d="M22.4312 26.5382L29.7785 19.1931L13.8185 9.93971C13.2384 9.59225 12.5613 9.39172 11.8368 9.39172C10.0634 9.39172 8.5671 10.5985 8.1317 12.2364C8.13116 12.238 8.13116 12.2391 8.13116 12.2405L22.4312 26.5382Z" fill="#3BAD49"/>
<path d="M57.8972 12.9123H54.0077V13.8748H56.9223C56.8431 14.6602 56.5306 15.2769 56.0035 15.7248C55.4765 16.1728 54.8035 16.3977 54.0077 16.3977C53.1348 16.3977 52.3952 16.0936 51.7891 15.4895C51.1953 14.8728 50.8933 14.1103 50.8933 13.1916C50.8933 12.2729 51.1953 11.5104 51.7891 10.8938C52.3952 10.2896 53.1348 9.98751 54.0077 9.98751C54.4557 9.98751 54.8828 10.0646 55.2743 10.2334C55.6661 10.402 55.9806 10.6375 56.2264 10.9396L56.966 10.2C56.6306 9.81872 56.2056 9.52712 55.6784 9.3146C55.1514 9.10207 54.6014 9.00007 54.0076 9.00007C52.8431 9.00007 51.8557 9.40419 51.0494 10.2105C50.2432 11.0187 49.839 12.0146 49.839 13.1916C49.839 14.3686 50.2431 15.3666 51.0494 16.1729C51.8557 16.979 52.8431 17.3833 54.0076 17.3833C55.2305 17.3833 56.2055 16.9916 56.9555 16.1957C57.6159 15.5333 57.9534 14.6375 57.9534 13.5167C57.9534 13.3271 57.9305 13.1248 57.8972 12.9123ZM59.404 9.17906V17.204H64.0892V16.2185H60.4352V13.6728H63.731V12.7103H60.4352V10.1666H64.0892V9.17903L59.404 9.17906ZM70.659 10.1666V9.17906H65.1445V10.1666H67.3862V17.2039H68.4174V10.1666H70.659ZM75.6515 9.17906H74.6203V17.204H75.6515V9.17906ZM82.4581 10.1666V9.17906H76.9437V10.1666H79.1852V17.2039H80.2164V10.1666H82.4581ZM92.8641 10.2229C92.0683 9.40413 91.0933 9 89.9287 9C88.7621 9 87.7872 9.40412 86.9913 10.2104C86.1955 11.0063 85.8039 12.0041 85.8039 13.1915C85.8039 14.3789 86.1955 15.3769 86.9913 16.1728C87.7872 16.9789 88.7621 17.3832 89.9287 17.3832C91.0828 17.3832 92.0682 16.9789 92.8641 16.1728C93.66 15.377 94.0515 14.379 94.0515 13.1915C94.0515 12.0145 93.6599 11.0186 92.8641 10.2229ZM87.7309 10.8937C88.3246 10.2896 89.0538 9.98744 89.9287 9.98744C90.8016 9.98744 91.5308 10.2896 92.1141 10.8937C92.7078 11.4874 92.9994 12.2623 92.9994 13.1915C92.9994 14.1228 92.7078 14.8956 92.1141 15.4894C91.5308 16.0935 90.8016 16.3976 89.9287 16.3976C89.0538 16.3976 88.3246 16.0935 87.7309 15.4894C87.1496 14.8831 86.858 14.1228 86.858 13.1915C86.858 12.2623 87.1496 11.4999 87.7309 10.8937ZM96.5015 12.2062L96.4578 10.6582H96.5015L100.581 17.2039H101.658V9.17898H100.626V13.8747L100.67 15.4227H100.626L96.7265 9.17898H95.4703V17.2039H96.5015V12.2062Z" fill="black" stroke="black" stroke-width="0.26666" stroke-miterlimit="10"/>
</svg>
