<svg width="30" height="30" viewBox="0 0 30 30" fill="none" xmlns="http://www.w3.org/2000/svg">
<path d="M23.7206 5.55112C23.319 5.55112 22.9923 5.87789 22.9923 6.27944C22.9923 6.68098 23.319 7.00776 23.7206 7.00776C24.1222 7.00776 24.4489 6.68104 24.4489 6.27944C24.4489 5.87784 24.1222 5.55112 23.7206 5.55112ZM15 8.54321C11.4397 8.54321 8.54321 11.4397 8.54321 15C8.54321 18.5603 11.4397 21.4569 15 21.4569C18.5603 21.4569 21.4569 18.5603 21.4569 15.0001C21.4569 11.4398 18.5603 8.54321 15 8.54321Z" fill="#E25726"/>
<path d="M21.776 0H8.22404C3.6893 0 0 3.6893 0 8.2241V21.776C0 26.3108 3.6893 30 8.22404 30H21.776C26.3108 30 30 26.3107 30 21.776V8.2241C30 3.6893 26.3108 0 21.776 0ZM15 23.2284C10.4628 23.2284 6.77162 19.5372 6.77162 15C6.77162 10.4628 10.4629 6.77168 15 6.77168C19.5371 6.77168 23.2284 10.4629 23.2284 15C23.2284 19.5371 19.5371 23.2284 15 23.2284ZM23.7206 8.77945C22.3421 8.77945 21.2206 7.65797 21.2206 6.27949C21.2206 4.90102 22.3421 3.77947 23.7206 3.77947C25.099 3.77947 26.2205 4.90096 26.2205 6.27943C26.2205 7.65791 25.099 8.77945 23.7206 8.77945Z" fill="#E25726"/>
</svg>
