<svg width="287" height="113" viewBox="0 0 287 113" fill="none" xmlns="http://www.w3.org/2000/svg">
<g clip-path="url(#clip0_2009_7)">
<path d="M287 71.8C286.4 74.5 285.4 77.1 283.5 79.1C278.8 84 273 85.7 266.5 84.4C261.4 83.4 259.1 79.5 258.1 74.7C257.4 71.6 257.4 68.5 257.7 65.4C257.7 65 257.8 64.6 257.8 63.9C257.3 64.3 257 64.6 256.7 64.9C254.6 66.9 252.3 68.7 249.6 69.8C243.1 72.5 234.5 71 232.9 60.5C232.6 58.5 232.6 56.4 232.5 54.3C230.7 54.3 228.9 54.3 227 54.3C226.5 57.2 226 60 225.7 62.7C225.2 67.3 225 71.8 224.7 76.4C224.6 77.9 224.1 78.2 222.7 77.6C218.4 75.6 216.4 72.1 216 67.5C215.5 63 216.1 58.5 216.9 54.1C217 53.6 217.1 53 217.1 52.5C215.4 51.9 213.7 51.4 211.8 50.8C211.2 54.2 210.5 57.6 210 60.9C208.9 68.2 208.4 75.5 208.3 82.8C208.3 84.2 207.7 84.5 206.4 84C201.8 82.1 199.6 78.6 199 73.9C198.3 68.1 199 62.3 199.9 56.5C200.4 53.2 201.1 49.9 201.8 46.6C202 45.8 201.8 45.5 201.2 45.1C200 44.3 198.8 43.4 197.4 42.4C197.2 44 197 45.5 196.7 47C195.8 51.5 194.2 55.7 191.1 59.2C187.8 63 183.6 64.5 178.6 63.4C175 62.6 172.7 60.3 171.2 57.1C170.9 56.5 170.7 56 170.4 55.4C168.8 57.8 167.4 60.2 165.7 62.5C163.2 66 160.3 68.9 156.4 70.8C148.6 74.6 139 71.5 134.6 63.7C131.8 58.6 130.9 53.1 130.9 47.4C131.1 34.5 134.6 22.5 142 11.8C145.7 6.40001 150.4 2.00001 156.9 -0.0999878C157 -0.0999878 157 -0.199988 157.1 -0.299988C160.3 -0.299988 163.4 -0.299988 166.6 -0.299988C166.8 -0.199988 167 1.22115e-05 167.2 0.100012C171.1 1.70001 173.5 4.60001 174.5 8.60001C175.9 14.3 175.2 19.8 172.3 24.9C170.4 28.2 167.9 30.9 164.1 32C162.9 32.3 161.5 32.2 160.2 31.9C158.6 31.5 157.9 30.4 159.3 28.6C162.9 24.3 164.4 19.2 163.8 13.6C163.4 9.70001 160.6 8.40001 157.3 10.6C156.8 10.9 156.2 11.3 155.9 11.8C154.7 13.3 153.4 14.7 152.5 16.3C146.9 26.4 144.4 37.4 144.6 48.9C144.6 51.8 145.1 54.7 146.6 57.3C148 59.9 150.1 61.2 153.1 60.7C154.6 60.5 156.2 60.1 157.6 59.5C160.5 58.2 162.7 56.1 164.6 53.6C167.3 50 169.5 46.2 170 41.5C170.5 36.5 172.5 31.9 175.5 27.9C177.3 25.5 179.5 23.4 182.6 22.6C185.2 21.9 187.7 22.2 189.9 24.1C190.8 24.9 190.8 25.9 189.8 26.5C185.6 29.1 183.1 33 181.5 37.6C180.1 41.7 179.4 45.9 180.6 50.2C181.4 53.5 183.7 54.2 186.4 52.2C187.2 51.6 188 50.9 188.5 50.1C189.4 48.4 190.3 46.7 190.8 44.9C191.7 41.5 191.7 38 190 34.8C188.9 32.6 189.5 29.6 191.5 28.2C192.4 27.5 193.3 27.4 194.1 28.4C194.6 28.9 195.1 29.4 195.7 29.8C198.6 31.9 201.5 34 204.5 36.1C205.6 33.3 206.5 30.8 207.5 28.3C209.7 23.1 212.2 18.1 216 13.9C217.6 12.2 219.3 10.7 221.6 10.1C225.6 8.90001 228.7 10.6 231.4 13.4C231.9 13.9 232.4 14.5 232.8 15C234.4 13.6 235.7 12.1 237.3 10.9C240.9 8.00001 245 7.30001 249.4 8.80001C252.1 9.70001 253.6 11.6 253.7 14.5C253.7 16.2 253.5 17.9 253.1 19.5C252.8 21 252.2 21.2 250.9 20.3C247.8 18.4 245 18.4 242.1 20.6C241 21.4 240.1 22.3 239.2 23.3C235.8 27.3 233.7 32 231.9 36.9C231 39.5 230.2 42.1 229.2 44.8C230.9 45 232.3 45.1 233.8 45.4C234.5 45.5 234.8 45.2 235.1 44.6C236.1 42.6 237 40.6 238.2 38.8C240.7 35.1 243.8 32.1 248.3 31C253.5 29.7 257.8 32.3 258.8 37.5C259.1 38.9 259 40.4 258.8 41.8C258 46 255.2 48.7 251.6 50.5C249.5 51.5 247.2 52.1 244.9 52.9C244.5 53.1 243.9 53.5 243.8 53.8C243.7 55.1 243.6 56.5 243.8 57.8C244.1 60.1 245.3 60.9 247.6 60.7C252.4 60.3 256.3 58 259.6 54.7C260.1 54.2 260.6 53.5 260.9 52.8C262.5 49.1 264.4 45.6 267 42.5C269.3 39.8 272 37.4 275.5 36.5C280.6 35.1 286.2 36.7 286.4 44C286.6 50.3 284.3 55.6 279.7 60C277 62.6 273.8 63 270.3 61.7C269.9 61.6 269.6 61.4 269.1 61.2C268.9 62.7 268.5 64.1 268.5 65.5C268.5 67.6 268.5 69.8 269 71.9C269.4 73.9 270.7 74.6 272.7 74.5C275.6 74.4 278.1 73.3 280 71.2C281.5 69.6 282.6 67.7 283.8 65.9C284.5 64.8 285.1 64.6 285.8 65.7C286.3 66.5 286.7 67.4 287.1 68.2C287 69.6 287 70.7 287 71.8ZM219.4 42.6C221.8 34.7 224.9 27.3 229.1 20.4C227.9 19.1 226.5 18.9 225.1 19.8C224.2 20.4 223.3 21.2 222.7 22.1C221.2 24.6 219.6 27 218.4 29.7C216.8 33.3 215.5 37 214 40.8C216 41.4 217.7 42 219.4 42.6ZM270.6 55.9C271.3 55.8 271.8 55.8 272.2 55.6C275.4 54.2 277.2 51.7 277.9 48.3C278 47.7 277.7 46.6 277.3 46.5C276.7 46.4 275.7 46.6 275.2 47C273 49.4 271.9 52.5 270.6 55.9ZM245.7 45C245.8 45.1 245.9 45.2 246 45.3C247.9 45.1 249.3 44.1 250.4 42.6C250.9 41.9 251.1 41 250.3 40.4C249.4 39.7 248.6 40.2 248.2 40.9C247.2 42.2 246.5 43.6 245.7 45Z" fill="#E25726"/>
<path d="M53.5 113C53.5 108.2 53.5 103.4 53.5 98.4C54.4 98.4 55.2 98.3 55.9 98.4C56.2 98.5 56.6 98.9 56.7 99.3C57.6 101.7 58.4 104.2 59.2 106.6C59.3 107 59.5 107.4 59.7 108C60.6 105.3 61.5 102.9 62.3 100.5C63.1 98.1 63.2 98 66.2 98.5C66.2 103.3 66.2 108.1 66.2 112.9C65.4 112.9 64.7 112.9 63.9 112.9C63.9 109.6 63.9 106.3 63.9 103C63.4 103.8 63.1 104.6 62.8 105.5C62 108 61.2 110.5 60.4 112.9C60 112.9 59.6 112.9 59.1 112.9C58 109.6 56.8 106.2 55.7 102.9C55.6 102.9 55.5 102.9 55.4 102.9C55.4 106.2 55.4 109.6 55.4 112.9C54.9 113 54.2 113 53.5 113Z" fill="white"/>
<path d="M164.8 113C164.8 112.6 164.9 112.3 164.9 112C160.5 110.7 159.1 109.1 159.1 105.9C159.1 102.7 160.6 101.1 164.8 99.9C164.9 99.5 164.9 99.1 165 98.6C165.6 98.6 166.3 98.6 167 98.6C167 99 167.1 99.4 167.1 99.9C169 100.2 171 100.8 171.9 102.7C172.5 103.8 172.7 105.2 172.7 106.5C172.7 109.4 171 110.9 167 112C167 112.3 167 112.7 166.9 113.1C166.3 113 165.5 113 164.8 113ZM167.1 102.3C167.1 104.7 167.1 107 167.1 109.3C169.4 109 170.6 107.9 170.6 106C170.7 104 169.6 102.8 167.1 102.3ZM164.8 102.3C162.4 102.7 161.2 104 161.3 106C161.4 107.9 162.6 109.1 164.8 109.3C164.8 107 164.8 104.7 164.8 102.3Z" fill="white"/>
<path d="M71.5 113C71.5 108.2 71.5 103.4 71.5 98.5C72.2 98.5 72.9 98.5 73.6 98.5C73.6 101.7 73.6 104.9 73.6 108C73.7 108 73.8 108.1 73.9 108.1C74.1 107.8 74.3 107.6 74.5 107.3C76 104.8 77.6 102.4 79 99.8C79.7 98.5 80.6 98.1 82.2 98.5C82.2 98.9 82.2 99.3 82.2 99.8C82.2 103.7 82.2 107.6 82.2 111.5C82.2 112 82.3 112.4 82.3 112.9C81.5 112.9 80.8 112.9 80 112.9C80 109.6 80 106.4 80 103.1C79.9 103.1 79.8 103.1 79.7 103.1C77.7 106.4 75.8 109.6 73.8 112.9C73 113 72.3 113 71.5 113Z" fill="white"/>
<path d="M191 113C191 108.2 191 103.4 191 98.5C191.7 98.5 192.3 98.5 193.1 98.5C193.1 101.7 193.1 104.9 193.1 108.1C193.2 108.1 193.3 108.2 193.4 108.2C193.6 107.9 193.8 107.7 194 107.4C195.5 104.9 197.1 102.5 198.5 99.9C199.2 98.6 200.1 98.2 201.6 98.6C201.6 103.4 201.6 108.2 201.6 113C200.9 113 200.3 113 199.6 113C199.6 109.7 199.6 106.5 199.6 103.2C199.5 103.2 199.4 103.1 199.2 103.1C197.2 106.4 195.3 109.7 193.3 112.9C192.5 113 191.8 113 191 113Z" fill="white"/>
<path d="M223 113C223 108.2 223 103.4 223 98.5C223.6 98.5 224.3 98.5 225.1 98.5C225.1 101.7 225.1 104.9 225.1 108.1C225.2 108.1 225.3 108.2 225.4 108.2C225.9 107.4 226.4 106.5 226.9 105.7C228.1 103.7 229.3 101.8 230.5 99.8C231.5 98.2 231.5 98.2 233.6 98.5C233.6 103.3 233.6 108.1 233.6 112.9C232.9 112.9 232.3 112.9 231.6 112.9C231.6 109.6 231.6 106.4 231.6 103.1C231.5 103.1 231.3 103.1 231.2 103C229.3 106.3 227.3 109.6 225.4 112.8C224.5 113 223.8 113 223 113Z" fill="white"/>
<path d="M103.5 113C103.5 108.2 103.5 103.4 103.5 98.5C104.2 98.5 104.8 98.5 105.6 98.5C105.6 101.8 105.6 105 105.6 108.2C105.7 108.2 105.8 108.2 105.9 108.3C106.7 107 107.5 105.6 108.3 104.3C109.2 102.8 110.2 101.4 111 99.8C111.7 98.4 112.6 98.2 114 98.6C114 103.4 114 108.2 114 113C113.3 113 112.7 113 112 113C112 109.7 112 106.5 112 103.2C111.9 103.2 111.8 103.2 111.6 103.1C109.6 106.4 107.7 109.6 105.7 112.9C105 113 104.3 113 103.5 113Z" fill="white"/>
<path d="M145.8 113C142.4 109.9 141.4 106.1 143 102.2C144 99.7 146 98.3 148.5 98.2C151 98.2 153 99.6 154.1 102.1C155.8 106.1 154.7 110.1 151.3 113C149.5 113 147.6 113 145.8 113ZM152.9 105.9C152.4 104.5 152.2 103.1 151.4 102C150 99.8 147.1 99.9 145.5 102C144.1 104 144.1 107.6 145.5 109.5C147 111.6 149.9 111.7 151.4 109.5C152.2 108.6 152.4 107.2 152.9 105.9Z" fill="white"/>
<path d="M87.5 113C87.5 108.2 87.5 103.4 87.5 98.5C88.2 98.5 88.8 98.5 89.6 98.5C89.6 100.5 89.6 102.4 89.6 104.4C91.8 104.4 93.8 104.4 95.9 104.4C95.9 102.5 95.9 100.6 95.9 98.5C96.7 98.5 97.3 98.5 98.1 98.5C98.1 99.3 98.1 100.2 98.1 101C98.1 105 98 109 98 113C97.3 113 96.7 113 96 113C96 111 96 108.9 96 106.9C93.8 106.9 91.8 106.9 89.7 106.9C89.7 109 89.7 111 89.7 113C89 113 88.3 113 87.5 113Z" fill="white"/>
<path d="M207 113C207 108.2 207 103.4 207 98.5C207.7 98.5 208.3 98.5 209 98.5C209 100.5 209 102.4 209 104.4C211.2 104.4 213.2 104.4 215.3 104.4C215.3 102.5 215.3 100.6 215.3 98.5C216.1 98.5 216.7 98.5 217.4 98.5C217.4 103.3 217.4 108.1 217.4 113C216.7 113 216.1 113 215.4 113C215.4 111 215.4 108.9 215.4 106.9C213.1 106.9 211.1 106.9 208.9 106.9C208.9 109 208.9 111 208.9 113C208.4 113 207.7 113 207 113Z" fill="white"/>
<path d="M129.5 113C129.5 108.7 129.6 104.3 129.6 100C129.6 99.5 129.6 99 129.6 98.5C130.4 98.5 131 98.5 131.7 98.5C131.7 100.7 131.7 102.8 131.7 105C131.8 105 131.9 105.1 132 105.1C132.2 104.8 132.5 104.5 132.7 104.2C133.7 102.8 134.7 101.3 135.6 99.9C136.7 98.3 136.9 98.2 139.1 98.7C137.5 101 135.9 103.2 134.3 105.5C136 108 137.6 110.6 139.3 113.1C138.5 113.1 137.6 113.1 136.8 113.1C135.5 111.2 134.2 109.2 132.9 107.3C132.7 107.3 132.6 107.3 132.4 107.3C132.2 108.2 131.8 109 131.7 109.9C131.6 111 131.7 112 131.7 113.1C131 113 130.3 113 129.5 113Z" fill="white"/>
<path d="M177.8 113C177.8 109.9 177.7 106.8 177.7 103.7C177.7 102 177.7 100.3 177.7 98.6C180.5 98.6 183.2 98.6 186 98.6C186 99.3 186 100 186 100.8C184 100.8 182 100.8 179.9 100.8C179.9 102.1 179.9 103.3 179.9 104.6C181.9 104.6 183.8 104.6 185.9 104.6C185.9 105.4 185.9 106.1 185.9 106.9C184 106.9 182 106.9 179.9 106.9C179.9 108.3 179.9 109.6 179.9 111C181.9 111 183.9 111 186 111C186 111.8 186 112.4 186 113.1C183.3 113 180.5 113 177.8 113Z" fill="white"/>
<path d="M114 52.7C112.7 54.6 111.4 56.7 109.9 58.5C107.3 61.6 104.2 63.8 99.9 64C94.9 64.2 92.2 61.7 92 56.6C91.9 55.6 92 54.5 92 53.1C91.6 53.7 91.4 54 91.2 54.4C89.1 58 86.6 61.3 83.1 63.7C80.5 65.5 77.7 66.6 74.5 66.6C69.4 66.7 66.6 64.2 66 59.1C65.9 58.4 65.8 57.7 65.7 56.6C65.3 57.2 65.1 57.6 64.9 57.9C62.8 61.5 60.3 64.8 56.8 67.1C54.4 68.7 51.8 69.5 48.9 69.4C45.6 69.3 43.4 67.6 42.5 64.5C42.4 64.1 42.3 63.8 42.1 63.2C41.8 63.8 41.6 64.1 41.5 64.5C38.9 70 35.8 75.1 31.1 79.2C26.1 83.6 20.3 85.5 13.6 84C8 82.7 4.5 79 2.4 73.8C0.199997 68.4 -0.200003 62.7 0.199997 57C0.899997 46.1 3.9 36 9.3 26.6C12.6 20.9 16.6 15.8 22.3 12.2C25.9 10 29.7 8.80004 33.9 9.10004C40.4 9.60004 44.1 13.3 44.2 19.7C44.3 27 41.7 33.4 36.5 38.6C35.7 39.4 34.6 40.2 33.5 40.6C32.4 41 31.1 41 30 40.8C28.6 40.5 28.3 39.6 29.1 38.3C31 35.2 32.4 31.9 33.1 28.4C33.4 27 33.6 25.4 33.5 24C33.4 21.6 31.6 20.4 29.4 21.3C28.2 21.8 27 22.6 26 23.5C22.8 26.6 20.9 30.6 19.2 34.6C16.1 42.1 14.2 49.8 13.9 58C13.8 61.2 14 64.4 15.2 67.4C16.8 71.4 19.9 73 24.1 72.1C27.8 71.3 30.7 69.1 33.1 66.4C37.4 61.7 40.5 56.2 42.6 50.3C43.7 47.1 44.1 43.6 44.9 40.2C45.7 36.6 46.6 33 47.4 29.4C47.6 28.4 48.2 27.9 49.2 28C50 28.1 50.8 28.1 51.6 28.2C55.9 29 57.8 31.6 57 35.9C56.1 40.6 55 45.2 54 49.9C53.7 51.6 53.4 53.4 53.4 55.2C53.4 57.8 55 58.8 57.3 57.5C58.9 56.5 60.4 55.1 61.6 53.6C65.2 49 67.5 43.8 68.4 38C68.5 37.5 68.6 37 68.8 36.2C67.3 36.5 66 36.7 64.7 37.1C63.7 37.4 63.3 37 63 36.1C61.9 32.7 62.9 29.8 65.9 27.8C67.3 26.9 69 26.3 70.5 25.7C71.2 25.4 71.6 25.2 71.7 24.4C73.3 17.7 74.9 11 75.6 4.10004C75.7 3.10004 76.2 2.80004 77.1 2.80004C82.6 2.60004 86.4 5.20004 85.7 11.6C85.3 15.2 84.3 18.7 83.6 22.2C83.5 22.6 83.4 23 83.3 23.6C85.1 23.5 86.7 23.4 88.3 23.4C88.7 23.4 89.1 23.3 89.5 23.3C91.8 23.2 92 23.4 91.8 25.7C91.3 30.6 88.5 33.5 83.6 34C80.4 34.4 80.3 34.3 79.7 37.5C78.9 41.8 78.2 46.2 77.6 50.5C77.4 51.6 77.7 52.7 77.9 53.8C78.1 54.8 78.9 55.5 79.9 55.2C81.3 54.8 82.9 54.3 84.1 53.4C85.5 52.4 86.8 51 87.9 49.6C92.2 44.1 95.2 37.9 96.6 31C97 28.7 97.5 26.4 98 24.2C98.3 22.7 98.5 22.5 100 22.7C101.1 22.9 102.2 23.1 103.3 23.5C106.2 24.6 107.6 27 107.1 30C106.4 34.2 105.4 38.4 104.6 42.6C104.1 45.2 103.7 47.8 103.5 50.4C103.3 52.9 104.8 53.7 106.8 52.2C108 51.3 109.1 50.1 110 48.7C112.7 44.4 114 39.6 114.9 34.6C115.6 30.6 116 26.4 116.5 22.4C116.7 21.1 117 20.7 118.2 20.9C119.6 21.2 121 21.5 122.3 22C125.1 23.2 126.5 25.4 126.5 28.5C126.3 36.8 125.3 44.9 123.4 53C121.8 59.6 119.6 66 115.8 71.7C112.9 75.9 109.4 79.3 104.2 80.4C102.5 80.8 100.6 80.9 98.9 80.8C95.9 80.6 93.7 78.8 93.2 75.8C92.9 74 93 72.1 93.1 70.2C93.2 69.1 93.8 68.9 94.8 69.4C100.2 72 104.6 71 108.3 66.4C110.7 63.4 113.6 56.6 114 52.7Z" fill="white"/>
<path d="M51 14.5C51.5 11.9 52 9.3 52.5 6.7C52.6 5.9 53.1 5.5 53.9 5.6C55.7 5.8 57.6 6 59.3 6.5C61.4 7.2 62.2 8.6 62.1 10.8C61.9 15.3 60.2 19.4 58.2 23.3C57.8 24 57.3 24 56.6 23.8C53.2 22.5 51.7 20 51.4 16.6C51.3 15.9 51.4 15.3 51.4 14.6C51.2 14.6 51.1 14.6 51 14.5Z" fill="white"/>
<path d="M118.6 106.7C118.6 106.1 118.6 105.5 118.6 104.8C120.7 104.8 122.9 104.8 125.1 104.8C125.1 105.4 125.1 106 125.1 106.7C123 106.7 120.8 106.7 118.6 106.7Z" fill="white"/>
<path d="M199 95.1C199.7 95.4 199.5 95.9 198.8 96.6C197.3 98 195.2 98 193.7 96.6C193 95.9 193 95.8 193.7 95.2C194.6 95.6 195.4 96.2 196.2 96.3C197.1 96.2 197.9 95.6 199 95.1Z" fill="white"/>
</g>
<defs>
<clipPath id="clip0_2009_7">
<rect width="287" height="113" fill="white"/>
</clipPath>
</defs>
</svg>
