<svg width="38" height="22" viewBox="0 0 38 22" fill="none" xmlns="http://www.w3.org/2000/svg">
<path d="M31.2034 12.3769C30.6052 11.6215 30.7763 11.2854 31.2034 10.6101C31.2111 10.6024 36.1492 3.77876 36.658 1.46463L36.661 1.46309C36.9139 0.619771 36.661 0 35.4385 0H31.393C30.3631 0 29.8883 0.531893 29.6339 1.127C29.6339 1.127 27.5741 6.05742 24.6603 9.2534C23.7198 10.1769 23.2851 10.4729 22.7717 10.4729C22.5188 10.4729 22.1257 10.1769 22.1257 9.33357V1.46309C22.1257 0.451724 21.8374 0 20.9848 0H14.6237C13.9777 0 13.5938 0.471767 13.5938 0.911157C13.5938 1.87011 15.0508 2.09057 15.2018 4.78858V10.6425C15.2018 11.9252 14.969 12.1611 14.4526 12.1611C13.0774 12.1611 9.73953 7.21063 7.7615 1.5448C7.3622 0.445557 6.97214 0.00154161 5.93456 0.00154161H1.88755C0.7328 0.00154161 0.5 0.533435 0.5 1.12854C0.5 2.17999 1.87521 7.40797 6.89505 14.3149C10.2406 19.0295 14.9521 21.5841 19.2381 21.5841C21.8143 21.5841 22.1288 21.0167 22.1288 20.0408C22.1288 15.5359 21.896 15.1104 23.1864 15.1104C23.7846 15.1104 24.8145 15.4064 27.2195 17.6804C29.9684 20.3769 30.4202 21.5841 31.9588 21.5841H36.0043C37.1575 21.5841 37.7418 21.0167 37.4057 19.8974C36.6364 17.5432 31.4377 12.7007 31.2034 12.3769Z" fill="#E25726"/>
</svg>
